# xmcd CD database file
#
# Track frame offsets:
#	150
#	10405
#	69809
#	134795
#	159487
#	197391
#	239143
#
# Disc length: 3273 seconds
#
# Revision: 0
# Processed by: cddbd v1.5.1PL0 Copyright (c) Steve Scherf et al.
# Submitted via: CDex 1.50
#
DISCID=5d0cc707
DTITLE=Roy Haynes Quintet - Birds of a Feather: A Tribute to Charlie Parker
DYEAR=2004
DGENRE=Jazz
TTITLE0=intro
TTITLE1=Segment
TTITLE2=unknown
TTITLE3=unknown
TTITLE4=unknown
TTITLE5=unknown
TTITLE6=unknown
EXTD=YEAR: 2004
EXTT0=
EXTT1=
EXTT2=
EXTT3=
EXTT4=
EXTT5=
EXTT6=
PLAYORDER=
